<?xml version="1.0" standalone="no"?><!DOCTYPE svg PUBLIC "-//W3C//DTD SVG 1.1//EN" "http://www.w3.org/Graphics/SVG/1.1/DTD/svg11.dtd"><svg t="1744341470629" class="icon" viewBox="0 0 1030 1024" version="1.1" xmlns="http://www.w3.org/2000/svg" p-id="5813" xmlns:xlink="http://www.w3.org/1999/xlink" width="128.75" height="128"><path d="M409.6 896c-19.2 0-32-12.8-32-32V364.8c0-19.2 12.8-32 32-32s32 12.8 32 32v492.8c0 25.6-12.8 38.4-32 38.4zM614.4 889.6c-19.2 0-32-12.8-32-32V371.2c0-19.2 12.8-32 32-32s32 12.8 32 32v480c0 25.6-12.8 38.4-32 38.4z" fill="#ffffff" p-id="5814"></path><path d="M755.2 1024H268.8c-44.8 0-76.8-38.4-76.8-89.6V339.2c0-19.2 12.8-38.4 38.4-38.4s38.4 19.2 38.4 38.4v595.2c0 6.4 6.4 12.8 6.4 12.8h486.4V339.2c0-19.2 19.2-38.4 38.4-38.4s32 19.2 32 38.4v595.2c0 51.2-32 89.6-76.8 89.6zM985.6 185.6h-243.2V83.2C742.4 38.4 704 0 652.8 0H371.2C320 0 281.6 38.4 281.6 83.2V185.6H38.4c-19.2 0-38.4 19.2-38.4 38.4s19.2 38.4 38.4 38.4H992c19.2 0 38.4-19.2 38.4-38.4s-25.6-38.4-44.8-38.4zM358.4 83.2c0-6.4 6.4-12.8 12.8-12.8h288c6.4 0 12.8 6.4 12.8 12.8v89.6c0 6.4-6.4 12.8-12.8 12.8H371.2c-6.4 0-12.8-6.4-12.8-12.8V83.2z" fill="#ffffff" p-id="5815"></path></svg>