<?xml version="1.0" standalone="no"?><!DOCTYPE svg PUBLIC "-//W3C//DTD SVG 1.1//EN" "http://www.w3.org/Graphics/SVG/1.1/DTD/svg11.dtd"><svg t="1744339516300" class="icon" viewBox="0 0 1024 1024" version="1.1" xmlns="http://www.w3.org/2000/svg" p-id="2658" xmlns:xlink="http://www.w3.org/1999/xlink" width="144" height="144"><path d="M745.76 369.86l-451 537.48a18.693 18.693 0 0 1-8.46 5.74l-136.58 45.27c-13.24 4.39-26.46-6.71-24.43-20.5l20.86-142.36c0.5-3.44 1.95-6.67 4.19-9.33l451-537.48c6.65-7.93 18.47-8.96 26.4-2.31l115.71 97.1c7.92 6.64 8.96 18.46 2.31 26.39zM894.53 192.56l-65.9 78.53c-6.65 7.93-18.47 8.96-26.4 2.31l-115.71-97.1c-7.93-6.65-8.96-18.47-2.31-26.4l65.9-78.53c6.65-7.93 18.47-8.96 26.4-2.31l115.71 97.1c7.93 6.65 8.96 18.47 2.31 26.4z" fill="#1296db" p-id="2659"></path></svg>