<?xml version="1.0" standalone="no"?><!DOCTYPE svg PUBLIC "-//W3C//DTD SVG 1.1//EN" "http://www.w3.org/Graphics/SVG/1.1/DTD/svg11.dtd"><svg t="1744341268412" class="icon" viewBox="0 0 1024 1024" version="1.1" xmlns="http://www.w3.org/2000/svg" p-id="4440" xmlns:xlink="http://www.w3.org/1999/xlink" width="168" height="168"><path d="M5.835093 329.386667a35.456 35.456 0 0 0 8.192 11.264l204.288 202.666666a48.213333 48.213333 0 0 0 67.882667 0 46.933333 46.933333 0 0 0 0-67.370666L164.299093 354.944h472.832c146.133333 0 264.448 117.418667 264.448 262.442667s-118.314667 262.442667-264.448 262.442666H156.064427a48.128 48.128 0 0 0-48.384 48c0 26.581333 21.632 48 48.384 48h481.066666c199.082667 0 360.661333-160.298667 360.661334-357.930666 0-197.589333-161.578667-357.973333-360.661334-357.973334H164.299093l121.898667-121.472a47.36 47.36 0 0 0 0-67.413333 47.786667 47.786667 0 0 0-67.882667 0L14.027093 273.237333c-14.933333 14.762667-18.346667 37.717333-8.192 56.192z" fill="#ffffff" p-id="4441"></path></svg>