<?xml version="1.0" standalone="no"?><!DOCTYPE svg PUBLIC "-//W3C//DTD SVG 1.1//EN" "http://www.w3.org/Graphics/SVG/1.1/DTD/svg11.dtd"><svg t="1743125287119" class="icon" viewBox="0 0 1024 1024" version="1.1" xmlns="http://www.w3.org/2000/svg" p-id="7545" xmlns:xlink="http://www.w3.org/1999/xlink" width="144" height="144"><path d="M929 849a30 30 0 0 1-30-30v-83.137a447.514 447.514 0 0 1-70.921 92.209C722.935 933.225 578.442 975.008 442 953.482a444.917 444.917 0 0 1-241.139-120.591 30 30 0 1 1 37.258-47.01l0.231-0.231A385.175 385.175 0 0 0 442 892.625v-0.006c120.855 22.123 250.206-13.519 343.656-106.975a386.646 386.646 0 0 0 70.6-96.653h-87.247a30 30 0 0 1 0-60H929a30 30 0 0 1 30 30V819a30 30 0 0 1-30 30zM632 342a50 50 0 0 1 50 50v240a50 50 0 0 1-50 50H392a50 50 0 0 1-50-50V392a50 50 0 0 1 50-50h240zM402 607a15 15 0 0 0 15 15h190a15 15 0 0 0 15-15V417a15 15 0 0 0-15-15H417a15 15 0 0 0-15 15v190z m403.005-362.025a29.87 29.87 0 0 1-19.117-6.882l-0.232 0.231A386.5 386.5 0 0 0 689.478 168h-0.011c-145.646-75.182-329.021-51.747-451.117 70.35a386.615 386.615 0 0 0-70.6 96.65H255a30 30 0 0 1 0 60H95a30 30 0 0 1-30-30V205a30 30 0 0 1 60 0v83.129a447.534 447.534 0 0 1 70.923-92.206C317.981 73.866 493.048 37.2 647 85.836v-0.045a444.883 444.883 0 0 1 176.143 105.291 30 30 0 0 1-18.138 53.893z" fill="#2c2c2c" p-id="7546"></path></svg>