<?xml version="1.0" standalone="no"?><!DOCTYPE svg PUBLIC "-//W3C//DTD SVG 1.1//EN" "http://www.w3.org/Graphics/SVG/1.1/DTD/svg11.dtd"><svg t="1739712834115" class="icon" viewBox="0 0 1024 1024" version="1.1" xmlns="http://www.w3.org/2000/svg" p-id="6939" xmlns:xlink="http://www.w3.org/1999/xlink" width="200" height="200"><path d="M323 154H212c-15.464 0-28 12.536-28 28v660c0 15.464 12.536 28 28 28h32V655.255a68 68 0 0 1 19.917-48.083l51.255-51.255A68 68 0 0 1 363.255 536h297.49a68 68 0 0 1 48.083 19.917l51.255 51.255A68 68 0 0 1 780 655.255V870h32c15.464 0 28-12.536 28-28V355.51a28 28 0 0 0-8.201-19.8L701 204.913V372c0 19.882-16.118 36-36 36H359c-19.882 0-36-16.118-36-36V154z m72 0v182h234V154H395z m517 201.51V842c0 55.228-44.772 100-100 100H212c-55.228 0-100-44.772-100-100V182c0-55.228 44.772-100 100-100h426.49a100 100 0 0 1 70.711 29.29l173.51 173.509A100 100 0 0 1 912 355.509zM659.088 608H364.912L316 656.912V870h392V656.912L659.088 608zM530.5 209.5c0-19.882 16.118-36 36-36s36 16.118 36 36v65.164c0 19.883-16.118 36-36 36s-36-16.117-36-36V209.5z" fill="#333333" p-id="6940"></path></svg>