<?xml version="1.0" standalone="no"?><!DOCTYPE svg PUBLIC "-//W3C//DTD SVG 1.1//EN" "http://www.w3.org/Graphics/SVG/1.1/DTD/svg11.dtd"><svg t="1741399117151" class="icon" viewBox="0 0 1024 1024" version="1.1" xmlns="http://www.w3.org/2000/svg" p-id="2785" xmlns:xlink="http://www.w3.org/1999/xlink" width="200" height="200"><path d="M852.68743 966.232318 171.311547 966.232318c-62.714867 0-113.562988-50.846038-113.562988-113.558335L57.748558 171.324994c0-62.712297 50.848122-113.558335 113.562988-113.558335l681.376907 0c62.714867 0 113.562988 50.846038 113.562988 113.558335l0 681.348989C966.250418 915.38628 915.40332 966.232318 852.68743 966.232318zM909.469948 171.324994c0-31.356149-25.424061-56.779168-56.781494-56.779168L171.311547 114.545826c-31.357433 0-56.781494 25.423019-56.781494 56.779168l0 681.348989c0 31.357172 25.424061 56.779168 56.781494 56.779168l681.376907 0c31.358457 0 56.781494-25.423019 56.781494-56.779168L909.469948 171.324994zM824.297706 483.610416c-15.665413 0-28.390747-12.697183-28.390747-28.389584l0.887243-186.638771L604.102866 461.264479l-40.145947-40.144302 193.023924-193.016015L568.782006 228.104161c-15.693044 0-28.390747-12.697183-28.390747-28.389584s12.697704-28.389584 28.390747-28.389584l254.711349 0c7.929925 0 15.082105 3.27151 20.238756 8.53949 5.490263 4.657067 8.955319 11.449773 8.955319 19.850094l0 255.506255C852.68743 470.913233 839.989727 483.610416 824.297706 483.610416zM455.219017 852.673983 200.506645 852.673983c-7.929925 0-15.082105-3.270487-20.239779-8.538467-5.489239-4.65809-8.955319-11.423167-8.955319-19.850094L171.311547 568.779168c0-15.692401 12.726357-28.389584 28.390747-28.389584 15.69202 0 28.390747 12.697183 28.390747 28.389584l-0.887243 186.6664 192.690312-192.710047 40.173577 40.143279-193.050531 193.016015 188.198837 0c15.69202 0 28.390747 12.697183 28.390747 28.389584C483.608741 839.9768 470.911038 852.673983 455.219017 852.673983z" fill="#272636" p-id="2786"></path></svg>