<?xml version="1.0" standalone="no"?><!DOCTYPE svg PUBLIC "-//W3C//DTD SVG 1.1//EN" "http://www.w3.org/Graphics/SVG/1.1/DTD/svg11.dtd"><svg t="1744341164825" class="icon" viewBox="0 0 1024 1024" version="1.1" xmlns="http://www.w3.org/2000/svg" p-id="3344" width="168" height="168" xmlns:xlink="http://www.w3.org/1999/xlink"><path d="M896 928H128a32 32 0 0 1-32-32V128a32 32 0 0 1 32-32h768a32 32 0 0 1 32 32v768a32 32 0 0 1-32 32z m-736-64h704v-704h-704z" p-id="3345" fill="#ffffff"></path><path d="M704 352H320a32 32 0 0 1 0-64h384a32 32 0 0 1 0 64z" p-id="3346" fill="#ffffff"></path><path d="M512 736a32 32 0 0 1-32-32V320a32 32 0 0 1 64 0v384a32 32 0 0 1-32 32z" p-id="3347" fill="#ffffff"></path></svg>